<svg width="244" height="295" viewBox="0 0 244 295" fill="none" xmlns="http://www.w3.org/2000/svg">
<path d="M244 122C244 189.379 189.379 268 122 268C54.6213 268 -1.09197e-05 189.379 -1.09197e-05 122C-1.09197e-05 54.6213 54.6213 0 122 0C189.379 0 244 54.6213 244 122Z" fill="#0679FD"/>
<rect x="106" y="257" width="33" height="38" fill="#0679FD"/>
<ellipse cx="178.374" cy="45.9302" rx="19" ry="12.5" transform="rotate(23 178.374 45.9302)" fill="white"/>
<g filter="url(#filter0_d_141_2455)">
<path d="M59.9974 168V131.7L61.1374 132.42C60.5774 133.62 59.6974 134.76 58.4974 135.84C57.2974 136.88 55.8974 137.78 54.2974 138.54C52.6974 139.3 50.9774 139.84 49.1374 140.16V132.66C50.7374 132.42 52.3574 131.9 53.9974 131.1C55.6374 130.3 57.1174 129.36 58.4374 128.28C59.7574 127.16 60.6974 126 61.2574 124.8H67.6174V168H59.9974ZM73.1111 168V159.36H81.8111V168H73.1111ZM102.792 168.6C99.2719 168.6 96.1519 167.66 93.4319 165.78C90.7119 163.86 88.5719 161.22 87.0119 157.86C85.4919 154.46 84.7319 150.58 84.7319 146.22C84.7319 141.86 85.4919 138.04 87.0119 134.76C88.5319 131.44 90.6519 128.86 93.3719 127.02C96.1319 125.14 99.2719 124.2 102.792 124.2C106.352 124.2 109.492 125.14 112.212 127.02C114.932 128.86 117.052 131.44 118.572 134.76C120.132 138.04 120.912 141.86 120.912 146.22C120.912 150.62 120.132 154.5 118.572 157.86C117.052 161.22 114.932 163.86 112.212 165.78C109.492 167.66 106.352 168.6 102.792 168.6ZM102.792 162.06C104.992 162.06 106.812 161.36 108.252 159.96C109.692 158.56 110.772 156.66 111.492 154.26C112.252 151.86 112.632 149.16 112.632 146.16C112.632 143.16 112.272 140.5 111.552 138.18C110.832 135.86 109.732 134.04 108.252 132.72C106.812 131.4 104.992 130.74 102.792 130.74C100.632 130.74 98.8119 131.42 97.3319 132.78C95.8919 134.1 94.8119 135.92 94.0919 138.24C93.3719 140.56 93.0119 143.2 93.0119 146.16C93.0119 149.2 93.3719 151.92 94.0919 154.32C94.8119 156.72 95.9119 158.62 97.3919 160.02C98.8719 161.38 100.672 162.06 102.792 162.06ZM144.1 168.6C140.58 168.6 137.46 167.66 134.74 165.78C132.02 163.86 129.88 161.22 128.32 157.86C126.8 154.46 126.04 150.58 126.04 146.22C126.04 141.86 126.8 138.04 128.32 134.76C129.84 131.44 131.96 128.86 134.68 127.02C137.44 125.14 140.58 124.2 144.1 124.2C147.66 124.2 150.8 125.14 153.52 127.02C156.24 128.86 158.36 131.44 159.88 134.76C161.44 138.04 162.22 141.86 162.22 146.22C162.22 150.62 161.44 154.5 159.88 157.86C158.36 161.22 156.24 163.86 153.52 165.78C150.8 167.66 147.66 168.6 144.1 168.6ZM144.1 162.06C146.3 162.06 148.12 161.36 149.56 159.96C151 158.56 152.08 156.66 152.8 154.26C153.56 151.86 153.94 149.16 153.94 146.16C153.94 143.16 153.58 140.5 152.86 138.18C152.14 135.86 151.04 134.04 149.56 132.72C148.12 131.4 146.3 130.74 144.1 130.74C141.94 130.74 140.12 131.42 138.64 132.78C137.2 134.1 136.12 135.92 135.4 138.24C134.68 140.56 134.32 143.2 134.32 146.16C134.32 149.2 134.68 151.92 135.4 154.32C136.12 156.72 137.22 158.62 138.7 160.02C140.18 161.38 141.98 162.06 144.1 162.06ZM187.688 168L178.268 154.32L165.548 137.4H174.128L182.648 149.82L196.268 168H187.688ZM178.868 149.58L187.448 137.4H195.848L182.528 154.86L178.868 149.58ZM181.868 155.22L172.628 168H164.288L178.268 149.88L181.868 155.22Z" fill="white"/>
</g>
<defs>
<filter id="filter0_d_141_2455" x="38.5374" y="120.6" width="172.331" height="69.6" filterUnits="userSpaceOnUse" color-interpolation-filters="sRGB">
<feFlood flood-opacity="0" result="BackgroundImageFix"/>
<feColorMatrix in="SourceAlpha" type="matrix" values="0 0 0 0 0 0 0 0 0 0 0 0 0 0 0 0 0 0 127 0" result="hardAlpha"/>
<feOffset dx="2" dy="9"/>
<feGaussianBlur stdDeviation="6.3"/>
<feColorMatrix type="matrix" values="0 0 0 0 0 0 0 0 0 0 0 0 0 0 0 0 0 0 0.4 0"/>
<feBlend mode="normal" in2="BackgroundImageFix" result="effect1_dropShadow_141_2455"/>
<feBlend mode="normal" in="SourceGraphic" in2="effect1_dropShadow_141_2455" result="shape"/>
</filter>
</defs>
</svg>
