<?xml version="1.0" encoding="utf-8"?>
<!-- Generator: Adobe Illustrator 26.0.1, SVG Export Plug-In . SVG Version: 6.00 Build 0)  -->
<svg version="1.1" id="Layer_1" xmlns="http://www.w3.org/2000/svg" xmlns:xlink="http://www.w3.org/1999/xlink" x="0px" y="0px"
	 viewBox="0 0 1000 1000" style="enable-background:new 0 0 1000 1000;" xml:space="preserve">
<g>
	<path d="M503.8,662.4c-5.5,2.1-12.3,2.7-16.1,6.5c-14.7,14.5-28.5,30-42.6,45.1c-47.5,50.9-105.3,72-173.3,54.2
		c-69.9-18.4-112.6-66.8-129.7-135.4c-17.7-70.8-2.3-135.3,48.3-189.8c96.5-103.6,192.9-207.3,289.4-310.8
		c6.4-6.8,13.4-13.1,21-20.4c37.6,40.1,75.2,80.1,112.7,120.3c66.2,71,132.3,142.1,198.6,213.1c84,90,65.1,241.3-38.1,304.1
		c-69.2,42.1-155.6,30.1-213.2-29.3c-19-19.6-38.4-38.8-57.6-58.1L503.8,662.4z"/>
	<path d="M503.2,661.8c18.9,57.8,50.9,108.3,87.6,155.9c18.6,24.1,39.6,46.3,60.6,70.6c-100.6,0-200.3,0-303,0
		c11.8-13.1,22.5-25.3,33.5-37.3c48.1-52.7,84.6-112.7,112.6-178.2c1.7-4.1,6.2-7,9.4-10.5C503.8,662.4,503.2,661.8,503.2,661.8z"/>
</g>
</svg>
