<?xml version="1.0" encoding="utf-8"?>
<!-- Generator: Adobe Illustrator 26.0.1, SVG Export Plug-In . SVG Version: 6.00 Build 0)  -->
<svg version="1.1" id="Layer_1" xmlns="http://www.w3.org/2000/svg" xmlns:xlink="http://www.w3.org/1999/xlink" x="0px" y="0px"
	 viewBox="0 0 1000 1000" style="enable-background:new 0 0 1000 1000;" xml:space="preserve">
<path d="M516.3,696.1c34.6,72.9,78.6,133.4,135,188.8c-102.6,0-202.4,0-304.8,0c56.4-54.8,100.8-115.7,132.3-185.9
	c-27.4,34.6-60.7,61.5-100.8,79.5c-73.8,33.2-146.2,37.4-215.3-12.1c-65-46.6-91.1-136.3-62.6-213.2
	c28.6-77.3,106.4-127.9,186.6-120c24.4,2.4,48.5,8.5,73.9,13.2c-3.3-6-7.1-12.5-10.7-19.1c-32.8-59.2-48.5-121-25.9-187.6
	c29.8-87.5,121.8-139.5,212-120.6c91.7,19.2,154,101.2,148,193.9c-3.2,49-21.1,92.6-47.9,134.1c24.1-4.7,46.5-11.3,69.4-13.3
	c75.3-6.5,135.7,21.7,175.6,85.9c40.2,64.7,40,132.7-0.7,197.2c-40.4,63.9-100.9,92.4-176.1,84.7c-73.7-7.6-134.6-40.5-180.3-99.8
	C523.1,700.5,521.5,699.8,516.3,696.1z"/>
</svg>
